<?xml version="1.0" encoding="UTF-8" standalone="no"?>
<!DOCTYPE svg PUBLIC "-//W3C//DTD SVG 1.1//EN" "http://www.w3.org/Graphics/SVG/1.1/DTD/svg11.dtd">
<svg width="100%" height="100%" viewBox="0 0 764 115" version="1.1" xmlns="http://www.w3.org/2000/svg" xmlns:xlink="http://www.w3.org/1999/xlink" xml:space="preserve" xmlns:serif="http://www.serif.com/" style="fill-rule:evenodd;clip-rule:evenodd;stroke-linejoin:round;stroke-miterlimit:2;">
    <g transform="matrix(1,0,0,1,-18.4308,-242.774)">
        <g transform="matrix(1,0,0,1,20.4346,41.0097)">
            <path d="M379.565,201.765L429.124,230.377L429.124,287.603L379.565,316.216L330.007,287.603L330.007,230.377L379.565,201.765Z" style="fill:rgb(74,70,69);"/>
        </g>
        <g transform="matrix(0.450092,0,0,0.450092,74.5,183.431)">
            <path d="M379.565,201.765L429.124,230.377L429.124,287.603L379.565,316.216L330.007,287.603L330.007,230.377L379.565,201.765Z" style="fill:rgb(74,70,69);"/>
        </g>
        <g transform="matrix(0.450092,0,0,0.450092,383.821,183.431)">
            <path d="M379.565,201.765L429.124,230.377L429.124,287.603L379.565,316.216L330.007,287.603L330.007,230.377L379.565,201.765Z" style="fill:rgb(74,70,69);"/>
        </g>
        <g transform="matrix(0.257462,0,0,0.257462,29.7542,233.32)">
            <path d="M379.565,201.765L429.124,230.377L429.124,287.603L379.565,316.216L330.007,287.603L330.007,230.377L379.565,201.765Z" style="fill:rgb(74,70,69);"/>
        </g>
        <g transform="matrix(0.13612,0,0,0.13612,-26.4897,264.746)">
            <path d="M379.565,201.765L429.124,230.377L429.124,287.603L379.565,316.216L330.007,287.603L330.007,230.377L379.565,201.765Z" style="fill:rgb(74,70,69);"/>
        </g>
        <g transform="matrix(0.13612,0,0,0.13612,723.157,264.746)">
            <path d="M379.565,201.765L429.124,230.377L429.124,287.603L379.565,316.216L330.007,287.603L330.007,230.377L379.565,201.765Z" style="fill:rgb(74,70,69);"/>
        </g>
        <g transform="matrix(0.257462,0,0,0.257462,574.798,233.32)">
            <path d="M379.565,201.765L429.124,230.377L429.124,287.603L379.565,316.216L330.007,287.603L330.007,230.377L379.565,201.765Z" style="fill:rgb(74,70,69);"/>
        </g>
    </g>
</svg>
